<?xml version="1.0" standalone="no"?><!DOCTYPE svg PUBLIC "-//W3C//DTD SVG 1.1//EN" "http://www.w3.org/Graphics/SVG/1.1/DTD/svg11.dtd"><svg t="1611149769967" class="icon" viewBox="0 0 1024 1024" version="1.1" xmlns="http://www.w3.org/2000/svg" p-id="7532" xmlns:xlink="http://www.w3.org/1999/xlink" width="200" height="200"><defs><style type="text/css"></style></defs><path d="M704.7 565.8v-97.2c-42.4-5-75.3-41-75.3-84.8 0-20.7 7.4-39.6 19.6-54.4l-99.2-146.3c-11.4 5.6-24.2 8.7-37.7 8.7-47.1 0-85.3-38.2-85.3-85.3s38.2-85.3 85.3-85.3 85.3 38.2 85.3 85.3c0 18-5.6 34.7-15.1 48.5l101.3 149.3c9.7-3.8 20.2-5.9 31.2-5.9 17.4 0 33.6 5.2 47.1 14.2l98.9-142.3c-17.6-15.6-28.7-38.4-28.7-63.8 0-47.1 38.2-85.3 85.3-85.3s85.3 38.2 85.3 85.3-38.2 85.5-85.4 85.5c-6.3 0-12.4-0.7-18.3-2L790.9 345.6c5.8 11.5 9.1 24.5 9.1 38.3 0 35.6-21.8 66-52.7 78.9v108.9c30.9 12.8 52.7 43.3 52.7 78.9 0 17.2-5.1 33.2-13.8 46.6l105.5 138.7c8.1-2.5 16.7-3.9 25.6-3.9 47.1 0 85.3 38.2 85.3 85.3s-38.2 85.3-85.3 85.3-85.3-38.2-85.3-85.4c0-22.7 8.9-43.4 23.4-58.7L754.5 726.1a85.11 85.11 0 0 1-39.9 9.9c-42.1 0-77-30.4-84.1-70.5H437.3c-3.5 19.7-13.7 37.1-28.2 49.7L488 835.3c7.6-2.2 15.7-3.4 24-3.4 47.1 0 85.3 38.2 85.3 85.3s-38.2 85.3-85.3 85.3-85.3-38.2-85.3-85.3c0-23.4 9.4-44.6 24.7-60l-80.8-123.1c-5.6 1.1-11.4 1.7-17.3 1.7-13.8 0-26.9-3.3-38.4-9.1L179.7 873.1c7.8 12.9 12.3 28 12.3 44.1 0 47.1-38.2 85.3-85.3 85.3s-85.3-38.2-85.3-85.3 38.2-85.3 85.3-85.3c15.5 0 30 4.1 42.6 11.3l133.6-144.6c-9.4-13.7-14.8-30.3-14.8-48.1 0-16.6 4.8-32.2 13-45.3l-138-144.1c-11 5.2-23.3 8-36.2 8-47.1 0-85.3-38.2-85.3-85.3s38.2-85.3 85.3-85.3 85.3 38.2 85.3 85.3c0 18.7-6 35.9-16.2 50l136.1 142c12.3-6.8 26.4-10.7 41.4-10.7 37.4 0 69.1 24 80.7 57.5h200c10.3-30.3 37.5-52.9 70.5-56.8z m10-139.2c23.6 0 42.7-19.1 42.7-42.7s-19.1-42.7-42.7-42.7-42.7 19.2-42.7 42.7 19.1 42.7 42.7 42.7z m0 266.6c23.6 0 42.7-19.1 42.7-42.7s-19.1-42.7-42.7-42.7S672 627 672 650.6s19.1 42.6 42.7 42.6z m202.6-543.9c23.6 0 42.7-19.1 42.7-42.7S940.9 64 917.3 64s-42.7 19.1-42.7 42.7 19.2 42.6 42.7 42.6z m-405.3 0c23.6 0 42.7-19.1 42.7-42.7S535.6 64 512 64s-42.7 19.1-42.7 42.7 19.1 42.6 42.7 42.6zM353.3 693.2c23.6 0 42.7-19.1 42.7-42.7s-19.1-42.7-42.7-42.7-42.7 19.1-42.7 42.7 19.1 42.7 42.7 42.7zM106.7 426.6c23.6 0 42.7-19.1 42.7-42.7s-19.1-42.7-42.7-42.7S64 360.4 64 383.9s19.1 42.7 42.7 42.7z m0 533.3c23.6 0 42.7-19.1 42.7-42.7s-19.1-42.7-42.7-42.7S64 893.7 64 917.2s19.1 42.7 42.7 42.7z m810.6 0c23.6 0 42.7-19.1 42.7-42.7s-19.1-42.7-42.7-42.7-42.7 19.1-42.7 42.7 19.2 42.7 42.7 42.7z m-405.3 0c23.6 0 42.7-19.1 42.7-42.7s-19.1-42.7-42.7-42.7-42.7 19.1-42.7 42.7 19.1 42.7 42.7 42.7z" fill="#ffffff" p-id="7533"></path></svg>