<?xml version="1.0" standalone="no"?><!DOCTYPE svg PUBLIC "-//W3C//DTD SVG 1.1//EN" "http://www.w3.org/Graphics/SVG/1.1/DTD/svg11.dtd"><svg t="1611149881190" class="icon" viewBox="0 0 1024 1024" version="1.1" xmlns="http://www.w3.org/2000/svg" p-id="3994" xmlns:xlink="http://www.w3.org/1999/xlink" width="200" height="200"><defs><style type="text/css"></style></defs><path d="M896 112a16 16 0 0 1 16 16v144a16 16 0 0 1-16 16H128a16 16 0 0 1-16-16V128a16 16 0 0 1 16-16z m0-48H128a64 64 0 0 0-64 64v144a64 64 0 0 0 64 64h768a64 64 0 0 0 64-64V128a64 64 0 0 0-64-64zM519.84 952H88A24 24 0 0 1 64 928V392a24 24 0 0 1 48 0v512h407.84a24 24 0 1 1 0 48z" fill="#ffffff" p-id="3995"></path><path d="M955.84 933.28a16 16 0 0 1-22.72 22.72l-96-96a160 160 0 1 1 22.56-22.56zM608 736a128 128 0 1 0 128-128 128 128 0 0 0-128 128z" fill="#ffffff" p-id="3996"></path><path d="M368 432v160H208V432z m0-32H208a32 32 0 0 0-32 32v160a32 32 0 0 0 32 32h160a32 32 0 0 0 32-32V432a32 32 0 0 0-32-32z m0 288v160H208V688z m0-32H208a32 32 0 0 0-32 32v160a32 32 0 0 0 32 32h160a32 32 0 0 0 32-32V688a32 32 0 0 0-32-32z" fill="#ffffff" p-id="3997"></path></svg>