<?xml version="1.0" standalone="no"?><!DOCTYPE svg PUBLIC "-//W3C//DTD SVG 1.1//EN" "http://www.w3.org/Graphics/SVG/1.1/DTD/svg11.dtd"><svg t="1610949891813" class="icon" viewBox="0 0 1024 1024" version="1.1" xmlns="http://www.w3.org/2000/svg" p-id="2803" width="200" height="200" xmlns:xlink="http://www.w3.org/1999/xlink"><defs><style type="text/css"></style></defs><path d="M774.4 327.2H97.6c-8.8 0-16-7.2-16-16s7.2-16 16-16h676.8c75.2 0 136-58.4 136-129.6s-60.8-129.6-136-129.6H97.6c-8.8 0-16-7.2-16-16s7.2-16 16-16h676.8c92.8 0 168 72.8 168 161.6 0 89.6-75.2 161.6-168 161.6z" p-id="2804" fill="#1296db"></path><path d="M909.6 125.6H334.4c-4.8 0-8-3.2-8-8s3.2-8 8-8h575.2c4.8 0 8 3.2 8 8 0 4-3.2 8-8 8zM923.2 206.4H496.8c-4.8 0-8-3.2-8-8s3.2-8 8-8h426.4c4.8 0 8 3.2 8 8 0 4-3.2 8-8 8zM774.4 1020H97.6c-8.8 0-16-7.2-16-16s7.2-16 16-16h676.8c75.2 0 136-58.4 136-129.6s-60.8-129.6-136-129.6H97.6c-8.8 0-16-7.2-16-16s7.2-16 16-16h676.8c92.8 0 168 72.8 168 161.6s-75.2 161.6-168 161.6z" p-id="2805" fill="#1296db"></path><path d="M909.6 818.4H334.4c-4.8 0-8-3.2-8-8s3.2-8 8-8h575.2c4.8 0 8 3.2 8 8 0 4-3.2 8-8 8zM923.2 898.4H496.8c-4.8 0-8-3.2-8-8s3.2-8 8-8h426.4c4.8 0 8 3.2 8 8s-3.2 8-8 8zM124 327.2c-3.2 0-5.6-0.8-8-2.4-7.2-4.8-9.6-14.4-5.6-22.4 105.6-170.4 4-269.6 2.4-270.4-6.4-6.4-6.4-16-0.8-22.4 6.4-6.4 16-6.4 22.4-0.8 1.6 0.8 121.6 118.4 2.4 311.2-2.4 4.8-7.2 7.2-12.8 7.2zM926.4 671.2H249.6c-92.8 0-168-72.8-168-161.6s75.2-161.6 168-161.6h676.8c8.8 0 16 7.2 16 16s-7.2 16-16 16H249.6c-75.2 0-136 58.4-136 129.6s60.8 129.6 136 129.6h676.8c8.8 0 16 7.2 16 16s-7.2 16-16 16z" p-id="2806" fill="#1296db"></path><path d="M689.6 565.6H114.4c-4.8 0-8-3.2-8-8s3.2-8 8-8h575.2c4.8 0 8 3.2 8 8 0 4-4 8-8 8zM527.2 484.8H100.8c-4.8 0-8-3.2-8-8s3.2-8 8-8h426.4c4.8 0 8 3.2 8 8s-4 8-8 8zM900 671.2c-4 0-8-1.6-11.2-4-1.6-0.8-121.6-118.4-2.4-311.2 4.8-7.2 14.4-9.6 22.4-5.6 7.2 4.8 9.6 14.4 5.6 22.4-104.8 169.6-6.4 267.2-2.4 271.2 6.4 6.4 6.4 16 0.8 22.4-4.8 3.2-8.8 4.8-12.8 4.8z" p-id="2807" fill="#1296db"></path></svg>