<?xml version="1.0" standalone="no"?><!DOCTYPE svg PUBLIC "-//W3C//DTD SVG 1.1//EN" "http://www.w3.org/Graphics/SVG/1.1/DTD/svg11.dtd"><svg t="1611889246398" class="icon" viewBox="0 0 1024 1024" version="1.1" xmlns="http://www.w3.org/2000/svg" p-id="9239" xmlns:xlink="http://www.w3.org/1999/xlink" width="200" height="200"><defs><style type="text/css"></style></defs><path d="M1000.153425 429.238356L742.049315 279.145205c-12.624658-7.013699-29.457534-5.610959-40.679452 2.80548L670.509589 308.60274l-18.235616-71.539726s0-1.40274-1.40274-1.40274c0-1.40274-1.40274-4.208219-2.80548-5.610959 0-1.40274-1.40274-1.40274-1.402739-2.805479l-4.208219-4.20822-1.40274-1.402739c-1.40274-1.40274-4.208219-2.805479-5.610959-4.208219h-1.40274l-182.356164-99.594521c-8.416438-4.208219-18.235616-5.610959-26.652055-2.805479-8.416438 2.805479-16.832877 8.416438-21.041096 16.832876L11.221918 862.684932v1.402739c0 1.40274-1.40274 1.40274-1.40274 2.80548v25.249315c0 1.40274 0 1.40274 1.40274 2.805479v1.40274s0 1.40274 1.40274 1.40274c0 1.40274 1.40274 1.40274 1.402739 2.805479 0 0 0 1.40274 1.40274 1.40274l2.805479 2.805479 2.80548 2.80548 1.40274 1.402739 1.402739 1.40274s1.40274 0 1.40274 1.40274H28.054795s1.40274 0 1.402739 1.40274c0 0 1.40274 0 1.40274 1.402739H49.09589l688.745206-206.202739c18.235616-5.610959 28.054795-23.846575 23.846575-42.082192l-16.832876-61.720548L995.945205 490.958904c12.624658-5.610959 19.638356-16.832877 21.041096-29.457534 0-12.624658-5.610959-25.249315-16.832876-32.263014z m-388.558904-71.539726L413.808219 523.221918l186.564384-206.20274 11.221918 40.679452zM450.279452 193.578082l112.219178 61.720548L207.605479 645.260274l242.673973-451.682192z m238.465753 455.890411l-134.663013 40.679452 89.775342-40.679452 40.679452-18.235616 4.208219 18.235616z m-430.641095 95.386302l469.917808-392.767124 176.745205 103.80274-646.663013 288.964384z" p-id="9240"></path></svg>